HIERARCHY
ROOT Hips
{
	OFFSET 0.000000 0.000000 0.000000
	CHANNELS 6 Xposition Yposition Zposition Zrotation Xrotation Yrotation
	JOINT RightUpLeg
	{
		OFFSET -10.795800 0.000000 0.000000
		CHANNELS 3 Zrotation Xrotation Yrotation
		JOINT RightLeg
		{
			OFFSET 0.000000 -39.557900 0.000000
			CHANNELS 3 Zrotation Xrotation Yrotation
			JOINT RightFoot
			{
				OFFSET 0.000000 -40.613400 0.000000
				CHANNELS 3 Zrotation Xrotation Yrotation
				JOINT RightToe
				{
					OFFSET 0.000000 -1.003500 12.392200
					CHANNELS 3 Zrotation Xrotation Yrotation
					JOINT RightToeEnd
					{
						OFFSET 0.000000 1.088300 5.767000
						CHANNELS 3 Zrotation Xrotation Yrotation
						End Site
						{
						    OFFSET 0.000000 0.927200 4.913300
						}
					}
				}
			}
		}
	}
	JOINT LeftUpLeg
	{
		OFFSET 10.795800 0.000000 0.000000
		CHANNELS 3 Zrotation Xrotation Yrotation
		JOINT LeftLeg
		{
			OFFSET 0.000000 -39.557900 0.000000
			CHANNELS 3 Zrotation Xrotation Yrotation
			JOINT LeftFoot
			{
				OFFSET 0.000000 -40.613400 0.000000
				CHANNELS 3 Zrotation Xrotation Yrotation
				JOINT LeftToe
				{
					OFFSET 0.000000 -1.003500 12.392200
					CHANNELS 3 Zrotation Xrotation Yrotation
					JOINT LeftToeEnd
					{
						OFFSET 0.000000 1.088300 5.767000
						CHANNELS 3 Zrotation Xrotation Yrotation
						End Site
						{
						    OFFSET 0.000000 0.927200 4.913300
						}
					}
				}
			}
		}
	}
	JOINT Spine
	{
		OFFSET 0.000000 15.108100 0.000000
		CHANNELS 3 Zrotation Xrotation Yrotation
		JOINT Spine1
		{
			OFFSET 0.000000 12.828000 0.000000
			CHANNELS 3 Zrotation Xrotation Yrotation
			JOINT Spine2
			{
				OFFSET 0.000000 11.155500 0.000000
				CHANNELS 3 Zrotation Xrotation Yrotation
				JOINT LeftShoulder
				{
					OFFSET 2.000000 11.155500 0.000000
					CHANNELS 3 Zrotation Xrotation Yrotation
					JOINT LeftArm
					{
						OFFSET 15.139800 0.000000 0.000000
						CHANNELS 3 Zrotation Xrotation Yrotation
						JOINT LeftForeArm
						{
							OFFSET 0.000000 -26.627300 0.000000
							CHANNELS 3 Zrotation Xrotation Yrotation
							JOINT LeftHand
							{
								OFFSET 0.000000 -24.932400 0.000000
								CHANNELS 3 Zrotation Xrotation Yrotation
								JOINT LeftFinger0
								{
									OFFSET 0.000000 -8.640100 0.000000
									CHANNELS 3 Zrotation Xrotation Yrotation
									End Site
									{
									    OFFSET 0.000000 -5.000000 0.000000
									}
								}
							}
						}
					}
				}
				JOINT RightShoulder
				{
					OFFSET -2.000000 11.155500 0.000000
					CHANNELS 3 Zrotation Xrotation Yrotation
					JOINT RightArm
					{
						OFFSET -15.139800 0.000000 0.000000
						CHANNELS 3 Zrotation Xrotation Yrotation
						JOINT RightForeArm
						{
							OFFSET 0.000000 -26.627300 0.000000
							CHANNELS 3 Zrotation Xrotation Yrotation
							JOINT RightHand
							{
								OFFSET 0.000000 -24.932400 0.000000
								CHANNELS 3 Zrotation Xrotation Yrotation
								JOINT RightFinger0
								{
									OFFSET 0.000000 -8.640100 0.000000
									CHANNELS 3 Zrotation Xrotation Yrotation
									End Site
									{
									    OFFSET 0.000000 -5.000000 0.000000
									}
								}
							}
						}
					}
				}
				JOINT Neck
				{
					OFFSET 0.000000 11.155500 0.000000
					CHANNELS 3 Zrotation Xrotation Yrotation
					JOINT Head
					{
						OFFSET 0.000000 10.940000 0.000000
						CHANNELS 3 Zrotation Xrotation Yrotation
						JOINT HeadTip
						{
							OFFSET 0.000000 10.000000 0.000000
							CHANNELS 3 Zrotation Xrotation Yrotation
							End Site
							{
							    OFFSET 0.000000 5.000000 0.000000
							}
						}
					}
				}
			}
		}
	}
}
MOTION
Frames:	7
Frame Time:	0.033332
20.544800 83.145600 -40.813500 1.132750 -3.066383 -33.460012 -7.238966 -24.326635 -24.612983 -0.000000 17.707206 -0.000000 7.794665 18.150681 -21.189507 -0.000000 -1.911298 -0.000000 -0.000000 0.000000 -0.000000 5.402192 -7.400080 -9.798736 0.000000 49.811340 -0.000000 -21.816447 19.131954 19.654102 -0.000000 -34.161492 0.000000 -0.000000 0.000000 0.000000 -6.169005 15.303505 0.857731 -0.000000 12.012621 0.000000 0.000000 0.000000 -0.000000 10.933311 -0.000000 4.132102 30.181487 2.818212 -36.178860 180.000037 -71.926820 -180.000037 2.635916 8.810793 -16.771773 0.000000 0.000000 0.000000 -10.578484 -0.000000 -3.433458 -27.245686 5.752750 51.687895 -0.000868 -80.064505 -0.000729 -2.494319 3.093833 5.404370 0.000000 0.000000 -0.000000 0.000000 0.000000 -0.000000 6.386434 -1.648569 -29.634346 -0.000000 -0.000000 -0.000000 
15.226200 82.882200 -38.631800 -1.593437 -3.474568 -35.679600 -4.333408 -24.401065 -24.002039 0.000000 27.714434 0.000000 5.586735 11.833860 -19.215360 0.000000 0.801826 -0.000000 -0.000000 0.000000 -0.000000 6.745906 -11.662205 -8.458796 -0.000000 62.251129 0.000000 -14.168411 21.304419 21.797896 0.000000 -21.523256 -0.000000 0.000000 0.000000 0.000000 -4.422896 17.548968 2.567956 -0.000000 12.239748 0.000000 -0.000000 0.000000 -0.000000 8.879642 -0.000000 5.795914 29.152487 5.414075 -36.519410 -180.000037 -73.141344 -180.000037 1.748133 9.445185 -18.470511 -0.000000 0.000000 0.000000 -10.040848 -0.000000 -3.320956 -29.522093 6.973627 50.842399 -0.001057 -81.811654 -0.000915 -0.496333 3.821117 0.757637 -0.000000 0.000000 -0.000000 -0.000000 0.000000 -0.000000 5.493584 -2.985263 -30.179560 -0.000000 0.000000 0.000000 
10.215200 82.975500 -36.525200 -2.891638 -4.221923 -38.099874 -1.692580 -21.590912 -23.230306 0.000000 31.064325 -0.000000 3.494660 7.342839 -17.469451 -0.000000 0.255546 -0.000000 -0.000000 0.000000 -0.000000 5.820225 -15.636716 -6.847686 -0.000000 68.482694 -0.000000 -12.136231 17.614954 20.090876 -0.000000 -20.718319 0.000000 -0.000000 0.000000 -0.000000 -5.322364 18.506721 3.889804 -0.000000 13.356818 0.000000 -0.000000 0.000000 0.000000 7.977050 -0.000000 7.068838 26.796640 9.569496 -36.027544 -180.000037 -74.981158 -180.000037 3.047495 9.931798 -19.307197 -0.000000 0.000000 -0.000000 -9.192332 -0.000000 -2.496932 -31.109125 6.608412 50.847522 -0.001084 -82.012557 -0.000942 0.297913 3.286789 -2.627185 -0.000000 0.000000 -0.000000 -0.000000 0.000000 0.000000 6.772249 -3.045600 -29.612848 -0.000000 0.000000 0.000000 
5.429600 83.554400 -34.772300 -3.659098 -4.187536 -39.834223 1.783707 -17.982497 -20.525386 -0.000000 30.547239 0.000000 3.086274 4.783666 -18.015634 -0.000000 -0.598215 0.000000 -0.000000 0.000000 -0.000000 4.521224 -19.907603 -5.300463 -0.000000 67.746939 0.000000 -10.895097 14.385005 17.976738 -0.000000 -21.385281 0.000000 -0.000000 0.000000 0.000000 -6.165253 18.991672 4.927861 0.000000 13.795286 -0.000000 -0.000000 -0.000000 0.000000 7.519651 0.000000 8.108083 24.582107 12.558522 -35.907246 -180.000037 -78.485032 -180.000037 3.924170 10.728759 -19.752913 -0.000000 -0.000000 -0.000000 -8.349470 -0.000000 -2.442746 -31.406854 5.806919 50.775320 -0.000951 -80.920546 -0.000811 2.300728 3.522005 -7.977906 0.000000 0.000000 -0.000000 -0.000000 -0.000000 0.000000 8.058789 -2.063439 -29.221515 -0.000000 -0.000000 -0.000000 
0.876700 84.299600 -33.104200 -4.099415 -3.462898 -41.298010 5.067700 -14.359518 -18.688182 0.000000 28.526474 -0.000000 3.495297 3.644219 -18.279292 -0.000000 -1.284669 0.000000 -0.000000 0.000000 0.000000 3.154178 -23.422847 -3.759568 -0.000000 60.679912 0.000000 -10.448988 11.940364 17.992223 0.000000 -22.280784 -0.000000 0.000000 -0.000000 -0.000000 -6.143320 18.842005 6.738244 -0.000000 14.054532 -0.000000 -0.000000 0.000000 -0.000000 7.452699 -0.000000 7.881803 22.806466 14.568692 -35.665413 -180.000037 -82.258425 -180.000037 3.745830 12.671488 -22.200397 -0.000000 0.000000 -0.000000 -7.720727 0.000000 -3.584231 -31.048567 5.987381 50.466215 -0.000889 -80.296841 -0.000750 3.916990 3.524878 -11.707385 -0.000000 0.000000 -0.000000 -0.000000 0.000000 -0.000000 8.260922 -1.649282 -29.842916 -0.000000 0.000000 -0.000000 
-3.607300 84.927500 -31.421800 -4.561678 -2.907101 -42.406856 8.055186 -10.414947 -17.247212 -0.000000 26.109058 0.000000 3.850760 3.403932 -19.109428 -0.000000 -2.827436 0.000000 -0.000000 0.000000 -0.000000 1.650402 -24.793678 -2.229616 0.000000 48.281678 -0.000000 -10.413838 11.564051 19.869705 0.000000 -22.230435 -0.000000 -0.000000 0.000000 -0.000000 -6.016258 19.016896 7.810649 0.000000 14.291064 -0.000000 -0.000000 -0.000000 0.000000 7.590409 -0.000000 7.739369 21.966148 16.641912 -35.189205 -180.000037 -84.832431 -180.000037 4.525785 13.304541 -25.049799 -0.000000 -0.000000 0.000000 -7.523394 -0.000000 -4.121968 -30.060946 6.358157 50.415542 -0.000866 -80.039684 -0.000727 2.956779 3.799441 -11.918302 -0.000000 0.000000 -0.000000 -0.000000 -0.000000 0.000000 7.810394 -2.521947 -29.494533 -0.000000 0.000000 -0.000000 
-7.906400 85.233900 -29.754700 -4.698028 -2.219633 -43.916758 10.312647 -7.738171 -16.174596 -0.000000 25.622567 -0.000000 4.541809 2.971501 -19.392915 -0.000000 -4.460524 -0.000000 0.000000 0.000000 -0.000000 0.286876 -24.702986 0.904562 0.000000 32.762030 0.000000 -11.905732 13.610212 21.350487 0.000000 -20.496494 0.000000 -0.000000 0.000000 -0.000000 -6.152009 18.948709 8.609252 -0.000000 14.359504 -0.000000 -0.000000 0.000000 -0.000000 7.770268 -0.000000 7.982105 22.003912 18.736367 -34.891031 180.000037 -86.058559 -180.000037 5.746612 13.189667 -25.451717 -0.000000 -0.000000 0.000000 -7.484981 0.000000 -3.964426 -28.971130 6.818050 49.895238 -0.000865 -80.028421 -0.000726 2.497191 4.430950 -12.449710 -0.000000 -0.000000 0.000000 -0.000000 0.000000 -0.000000 7.204858 -3.923500 -28.451305 -0.000000 0.000000 0.000000 
